<svg width="960" height="947" viewBox="0 0 960 947" fill="none" xmlns="http://www.w3.org/2000/svg">
<path d="M310.271 366.694C265.338 373.227 240.671 421.76 261.471 462.827C265.605 471.094 277.871 484.294 285.471 488.694C299.338 496.827 315.871 499.76 331.738 496.694C369.338 489.494 393.471 451.76 384.005 415.227C375.471 382.427 344.271 361.894 310.271 366.694Z" fill="black"/>
<path d="M630.271 366.827C604.138 370.427 582.671 389.627 575.871 415.227C573.738 423.094 573.471 439.494 575.471 447.76C578.805 462.427 591.071 479.094 604.671 487.894C624.405 500.56 654.005 500.96 674.005 488.827C682.138 483.894 692.671 472.96 697.338 464.56C724.271 416.427 684.938 359.094 630.271 366.827Z" fill="black"/>
<path d="M463.605 506.56C426.938 511.227 395.738 528.827 381.071 553.36C376.271 561.494 371.738 576.827 373.738 578.827C375.471 580.56 381.205 578.027 390.538 571.36C417.738 552.027 438.271 543.894 467.205 541.094C501.605 537.76 536.538 547.894 567.605 570.16C574.271 574.96 581.071 578.827 583.071 578.96C586.405 579.227 586.671 578.96 586.405 573.894C585.471 559.227 568.271 536.294 549.338 524.56C526.138 510.027 492.538 503.094 463.605 506.56Z" fill="black"/>
<path d="M440.707 0.81543C366.707 7.61543 294.04 31.3488 230.04 69.7488C129.907 129.882 52.8402 228.682 18.3068 341.482C12.3068 361.082 4.44016 398.282 1.77349 420.149C-0.893177 442.282 -0.493177 505.882 2.57349 529.482C24.3068 701.749 134.84 843.215 300.84 911.482C357.107 934.549 416.44 946.149 479.374 946.149C508.44 946.149 527.24 944.682 554.84 940.015C653.774 923.749 744.174 878.415 815.24 809.482C894.707 732.415 940.84 642.149 956.04 534.149C959.507 510.415 960.174 452.015 957.507 426.149C945.107 308.415 886.44 197.215 794.574 117.349C745.64 74.8154 676.707 37.4821 612.707 18.8154C592.707 13.0821 556.974 5.74876 534.04 2.81543C514.44 0.282096 458.974 -0.917904 440.707 0.81543ZM495.107 30.4154C494.707 33.7487 490.574 35.2154 488.44 33.082C486.174 30.8154 488.307 27.4822 492.04 27.4822C494.974 27.4822 495.507 28.0154 495.107 30.4154ZM452.707 35.4822C454.84 39.6155 452.174 43.7487 447.64 43.2153C445.107 42.9487 443.907 41.8821 443.64 39.7488C442.707 33.4821 449.907 30.1488 452.707 35.4822ZM397.907 52.8154C400.04 67.2154 404.974 82.1488 410.174 89.7488C418.174 101.215 433.24 108.949 455.64 112.949C460.707 113.882 464.574 114.815 464.307 114.949C464.174 115.082 457.374 116.815 449.24 118.549C414.707 126.415 404.574 137.749 398.04 176.149L395.907 189.482L394.174 180.149C390.04 156.415 384.574 142.549 375.774 133.615C367.774 125.482 359.507 122.282 332.174 116.815L324.174 115.215L339.107 111.482C358.04 106.682 366.974 102.549 375.107 94.9487C385.107 85.6154 390.84 70.682 393.507 47.082C394.04 42.8154 394.84 39.7487 395.374 40.4154C395.907 40.9487 396.974 46.5488 397.907 52.8154ZM569.774 41.082C572.174 43.482 571.64 47.2154 568.84 48.8154C565.507 50.5488 562.44 49.3487 561.374 46.0154C559.774 40.9487 566.04 37.3487 569.774 41.082ZM605.64 51.3488C606.574 52.5488 607.374 54.5488 607.374 55.7488C607.374 58.6821 602.84 63.4822 600.04 63.4822C597.374 63.4822 592.707 58.682 592.707 56.1487C592.707 54.9487 594.174 52.5488 595.907 50.8154C599.374 47.3488 602.574 47.4821 605.64 51.3488ZM350.707 58.8154C350.707 60.5488 349.64 61.6154 347.774 61.8821C345.507 62.2821 344.707 61.6154 344.707 59.7488C344.707 58.4154 345.107 56.8154 345.64 56.2821C347.374 54.5488 350.707 56.1488 350.707 58.8154ZM530.574 63.4822C531.774 70.8155 537.774 77.3488 545.507 79.4822L551.64 81.2155L544.84 83.7488C536.84 86.8154 532.974 91.6154 530.574 101.349C528.974 108.282 528.174 107.882 526.84 99.3488C526.307 96.5488 524.707 92.8154 523.107 90.8154C519.907 86.6821 511.107 82.282 506.04 82.1487C503.64 82.0153 504.707 81.3487 509.24 80.0154C512.84 78.8154 517.24 76.9487 518.974 75.8821C522.84 73.3487 527.374 64.8153 527.374 60.1487C527.374 54.9487 529.507 57.2155 530.574 63.4822ZM484.574 72.8154C484.44 82.4154 482.174 83.0822 482.174 73.4822C482.04 66.9488 482.44 64.8153 483.374 66.1487C484.04 67.2153 484.574 70.2821 484.574 72.8154ZM444.707 69.4822C446.84 72.1488 445.507 75.4822 442.174 75.4822C438.707 75.4822 437.64 73.482 439.374 70.1487C441.107 66.9487 442.44 66.8155 444.707 69.4822ZM310.174 71.4822C310.707 71.4822 312.174 73.3488 313.374 75.4822C317.907 84.1488 307.64 91.7488 300.707 84.8154C299.24 83.3488 298.04 80.6821 298.04 78.9487C298.04 75.2154 304.174 69.6154 307.107 70.8154C308.04 71.2154 309.507 71.4822 310.174 71.4822ZM638.04 76.8154C638.04 80.0154 634.574 81.8821 632.44 79.7488C630.307 77.6154 632.174 74.1487 635.374 74.1487C637.107 74.1487 638.04 75.0821 638.04 76.8154ZM685.374 94.6821C686.707 95.6155 687.507 97.3487 687.107 98.4154C685.907 101.215 658.307 139.749 655.107 142.815C653.107 144.682 653.774 142.949 656.974 136.815C659.64 132.015 665.774 120.149 670.574 110.415C675.374 100.815 680.174 92.8154 681.107 92.8154C682.04 92.8154 684.04 93.6155 685.374 94.6821ZM641.774 102.415C641.507 104.415 640.44 105.482 638.707 105.482C636.974 105.482 635.907 104.415 635.64 102.415C635.24 100.015 635.774 99.4822 638.707 99.4822C641.64 99.4822 642.174 100.015 641.774 102.415ZM262.04 111.482C267.24 116.682 263.64 124.815 256.173 124.815C250.84 124.815 248.707 122.815 248.707 117.615C248.707 109.749 256.573 106.016 262.04 111.482ZM497.24 116.415C498.307 118.949 494.974 122.815 492.84 121.615C491.24 120.549 490.84 116.415 492.307 115.082C493.907 113.482 496.44 114.149 497.24 116.415ZM735.907 133.349C738.707 137.749 743.374 140.815 751.64 143.615L758.307 145.882L750.574 148.282C738.84 151.882 731.374 161.482 731.374 172.682C731.374 174.282 730.84 175.215 730.04 174.815C729.374 174.415 728.707 172.415 728.707 170.415C728.574 164.282 723.907 155.882 718.44 152.282C715.64 150.415 710.04 148.149 706.04 147.349L698.707 145.749L704.707 144.149C718.84 140.549 724.84 135.615 727.507 125.615C730.04 116.149 730.307 116.015 732.04 123.082C732.84 126.815 734.574 131.482 735.907 133.349ZM569.24 135.082C571.507 139.482 580.574 144.815 586.174 144.815C588.307 144.949 586.974 145.749 582.307 147.349C578.574 148.682 574.04 150.949 572.574 152.282C568.974 155.482 566.04 162.149 566.04 167.482C566.04 169.616 565.507 171.482 564.707 171.482C564.04 171.482 563.374 170.415 563.374 169.082C563.374 163.882 560.174 156.149 556.707 152.682C554.707 150.549 550.174 148.282 546.574 147.349L540.174 145.749L547.107 143.482C550.84 142.282 554.974 140.416 556.04 139.482C559.24 136.816 563.374 128.149 563.507 123.882C563.64 120.549 563.774 120.815 565.374 125.615C566.307 128.549 568.04 132.815 569.24 135.082ZM220.44 139.082C226.174 147.749 231.373 155.749 231.907 156.815C232.573 157.882 226.307 152.149 217.907 143.882C202.973 129.082 202.84 128.949 205.373 126.149C206.707 124.682 208.307 123.482 208.84 123.482C209.507 123.482 214.707 130.549 220.44 139.082ZM610.974 142.949C612.04 145.749 608.44 149.082 605.64 148.015C604.44 147.615 603.374 145.749 603.374 144.015C603.374 141.482 604.04 140.815 606.707 140.815C608.574 140.815 610.44 141.749 610.974 142.949ZM311.107 145.615C311.64 149.349 307.374 151.082 305.107 148.149C302.974 145.082 304.44 141.882 307.907 142.415C309.64 142.682 310.84 143.882 311.107 145.615ZM521.64 159.749C520.707 171.882 518.44 183.749 518.174 177.215C517.907 172.549 520.974 147.482 521.774 147.482C522.174 147.482 522.04 153.082 521.64 159.749ZM289.507 168.815C292.04 171.082 296.84 173.615 300.174 174.415C303.374 175.349 306.04 176.415 306.04 176.815C306.04 177.349 303.107 178.415 299.374 179.349C290.707 181.615 284.307 188.415 282.04 198.282L280.307 205.482L278.707 198.549C276.04 186.949 269.907 180.549 259.374 178.682C251.774 177.215 251.907 176.549 260.307 173.882C270.44 170.815 277.507 163.615 278.974 155.215L279.774 149.482L282.307 157.082C284.04 162.149 286.44 166.015 289.507 168.815ZM354.04 159.482C357.374 166.149 359.507 171.482 358.707 171.482C358.04 171.482 353.24 162.282 351.374 157.482C349.374 152.282 350.974 153.616 354.04 159.482ZM459.907 167.082C463.107 196.282 464.707 212.949 464.574 218.149C464.307 225.349 464.707 226.549 458.707 194.149C456.174 179.882 453.64 166.549 453.24 164.549C452.44 161.215 453.107 160.549 458.174 159.615C458.707 159.615 459.374 162.949 459.907 167.082ZM796.707 164.015C796.707 167.749 793.507 169.482 791.374 166.815C789.24 164.149 790.707 160.815 794.04 160.815C795.907 160.815 796.707 161.749 796.707 164.015ZM191.773 185.482C194.173 188.549 197.507 190.682 201.773 192.016C206.84 193.482 207.507 194.015 205.373 194.815C196.973 197.749 194.974 198.815 191.507 202.815C189.107 205.615 187.373 209.482 186.707 213.615L185.64 220.149L184.04 214.149C180.973 202.682 177.64 198.949 167.107 195.482L160.04 193.215L165.373 192.282C175.507 190.415 184.307 181.749 184.84 173.215C184.973 171.882 185.64 173.082 186.574 175.882C187.374 178.682 189.773 182.949 191.773 185.482ZM620.574 176.015C622.574 178.415 620.974 182.149 618.04 182.149C615.107 182.149 614.04 179.615 615.64 176.415C617.107 173.615 618.574 173.482 620.574 176.015ZM689.24 177.615C692.174 180.415 691.907 183.882 688.707 186.815C682.84 192.149 675.774 183.215 681.507 177.615C682.574 176.415 684.44 175.482 685.374 175.482C686.307 175.482 688.174 176.415 689.24 177.615ZM494.307 214.149C492.974 221.349 492.974 221.349 492.84 209.349C492.84 202.682 493.107 195.082 493.774 192.682C495.24 185.615 495.774 205.082 494.307 214.149ZM245.773 197.349C246.04 198.682 245.64 200.415 244.84 201.215C242.707 203.349 238.973 199.349 240.173 196.282C241.24 193.349 245.24 194.015 245.773 197.349ZM735.24 199.749C737.507 205.482 731.107 211.082 726.707 207.482C724.307 205.482 724.174 200.549 726.307 198.415C728.974 195.749 734.04 196.549 735.24 199.749ZM548.04 202.549C549.107 204.149 550.04 206.282 550.04 207.349C550.04 210.415 544.574 215.482 541.24 215.482C536.84 215.482 532.707 209.615 533.907 205.082C535.774 198.282 544.04 196.815 548.04 202.549ZM334.04 205.482C336.307 208.149 334.707 211.482 331.374 211.482C329.907 211.482 328.307 210.549 327.907 209.482C327.107 207.482 329.374 203.482 331.374 203.482C331.907 203.482 333.107 204.415 334.04 205.482ZM827.107 205.082C831.507 209.482 825.774 218.282 820.44 215.349C816.974 213.482 816.04 210.549 817.774 206.682C819.507 203.215 824.307 202.282 827.107 205.082ZM649.774 212.549C650.707 218.815 643.507 222.149 640.707 216.815C638.574 212.682 641.24 208.549 645.774 209.082C648.307 209.349 649.507 210.415 649.774 212.549ZM771.374 219.749C758.574 231.882 748.44 240.149 751.374 236.149C753.64 233.082 769.774 217.882 776.44 212.415C785.107 205.349 782.574 209.082 771.374 219.749ZM373.107 213.882C378.574 218.682 374.174 229.082 366.707 229.082C356.44 229.082 354.84 214.415 364.707 211.215C367.24 210.415 370.04 211.349 373.107 213.882ZM138.173 214.682C141.773 222.415 134.573 229.482 128.707 224.149C125.773 221.482 125.24 215.482 127.64 213.082C130.573 210.149 136.573 211.082 138.173 214.682ZM424.04 222.949L424.707 226.815L422.84 222.815C421.907 220.549 420.707 216.949 420.307 214.815L419.507 210.815L421.374 214.949C422.44 217.216 423.507 220.816 424.04 222.949ZM302.574 215.349C303.907 217.482 301.907 220.815 299.24 220.815C296.707 220.815 295.64 216.949 297.64 215.082C298.84 213.749 301.774 213.882 302.574 215.349ZM602.04 216.815C606.84 221.615 604.84 230.416 598.44 232.949C593.774 234.682 588.174 232.416 586.174 228.016C584.04 223.349 584.307 221.615 587.507 217.615C590.974 213.215 598.04 212.815 602.04 216.815ZM216.707 224.149C218.04 225.749 218.04 226.549 216.707 228.149C213.373 232.149 208.574 229.082 210.574 224.149C210.974 223.082 212.173 222.149 213.107 222.149C214.173 222.149 215.773 223.082 216.707 224.149ZM791.107 227.749C795.907 232.549 789.64 240.549 784.574 236.016C780.44 232.282 782.174 226.149 787.374 226.149C788.574 226.149 790.174 226.815 791.107 227.749ZM396.707 230.016C396.707 231.482 396.174 232.949 395.507 233.349C393.907 234.415 390.974 230.549 392.04 228.815C393.507 226.549 396.707 227.349 396.707 230.016ZM105.107 235.749C105.907 238.282 104.707 240.815 102.707 240.815C100.307 240.815 98.9735 238.549 99.9068 236.149C100.84 233.749 104.307 233.482 105.107 235.749ZM163.24 246.149C173.24 253.082 192.707 268.549 192.707 269.615C192.707 271.349 154.04 244.149 152.173 240.949C150.307 238.016 153.773 239.615 163.24 246.149ZM279.374 256.282C287.107 260.682 303.774 270.282 316.44 277.349C329.107 284.549 339.64 290.949 340.04 291.349C340.307 291.882 336.307 295.482 330.974 299.215C325.64 303.082 318.707 308.549 315.374 311.482C309.64 316.416 310.174 316.282 324.707 308.015C345.64 296.149 372.44 283.082 385.507 278.282C411.774 268.682 445.374 263.482 481.24 263.482C526.04 263.482 563.64 271.349 603.907 289.482C608.307 291.349 612.84 292.682 614.174 292.415C616.04 291.882 669.774 261.882 698.44 245.349C702.707 242.815 706.707 240.815 707.24 240.815C710.04 240.815 735.24 286.949 746.44 312.949C784.707 400.815 794.307 479.882 773.907 540.015C764.04 569.082 750.307 592.282 731.507 611.882C698.974 645.615 660.174 662.682 588.04 674.682C562.174 679.082 536.574 682.015 514.174 683.082L496.44 683.882L497.107 690.015C497.507 693.349 499.507 705.082 501.507 716.149C504.707 733.482 505.24 739.349 505.24 760.815C505.24 782.149 504.84 786.949 502.307 796.015C493.907 826.015 475.24 849.615 448.707 863.349C414.307 881.215 374.707 880.415 336.04 861.215C323.774 855.215 317.24 850.682 288.84 829.082C263.64 810.015 245.774 802.549 217.374 799.482C191.907 796.682 182.707 795.215 174.04 792.549C164.307 789.615 158.04 786.549 158.04 784.949C158.04 783.215 180.84 778.149 196.574 776.549C227.774 773.215 262.707 780.815 289.907 796.682C294.84 799.615 307.774 808.682 318.707 816.815C347.64 838.549 363.774 845.482 388.04 846.949C425.24 849.349 457.374 827.749 469.64 792.149C472.974 782.415 473.24 779.882 473.374 761.482C473.374 743.215 472.84 739.082 467.64 712.815L461.774 684.015L432.307 681.749C364.974 676.682 311.24 664.815 276.44 647.482C250.44 634.549 225.774 613.215 210.574 590.815C163.507 521.482 163.773 428.282 211.507 316.416C222.84 290.016 239.373 258.149 248.973 244.415L251.64 240.682L258.44 244.549C262.307 246.549 271.64 251.882 279.374 256.282ZM856.574 252.682C846.707 260.682 782.04 298.415 782.04 296.149C782.04 294.149 827.374 265.482 846.707 255.349C858.84 248.949 862.44 247.882 856.574 252.682ZM117.773 260.415C117.373 264.549 113.24 266.282 111.907 262.949C110.707 259.749 112.307 256.815 115.373 256.815C117.64 256.815 118.173 257.482 117.773 260.415ZM770.04 264.016C770.04 265.349 760.574 271.882 759.907 271.082C759.507 270.682 761.507 268.816 764.307 266.949C769.507 263.349 770.04 263.082 770.04 264.016ZM146.44 303.082C148.973 307.882 153.64 311.482 166.707 318.549C176.307 323.882 176.04 323.882 159.373 320.149C152.44 318.549 146.573 318.149 140.04 318.682L130.707 319.482L126.973 314.815C124.307 311.349 118.173 307.615 104.44 300.815C94.0402 295.615 86.3068 291.482 87.1068 291.482C88.0402 291.482 94.1735 293.215 100.973 295.482C118.573 301.082 123.507 301.616 130.707 298.949C135.773 296.949 137.107 295.616 139.64 290.016L142.707 283.349L143.373 291.082C143.773 295.349 145.107 300.682 146.44 303.082ZM889.107 301.082C890.04 303.749 887.507 307.482 885.374 306.682C882.307 305.482 882.84 299.482 885.907 299.482C887.374 299.482 888.707 300.282 889.107 301.082ZM851.907 309.749C852.974 318.549 859.374 331.482 864.84 336.015C870.307 340.682 875.774 343.082 887.374 346.149C895.374 348.415 895.774 348.549 892.04 349.482C877.107 352.949 869.24 356.282 863.907 361.349C858.04 367.082 853.24 377.749 851.774 388.282C850.707 396.149 849.24 395.615 848.174 387.082C847.107 379.082 842.04 367.082 837.64 362.416C833.24 357.616 823.24 353.082 813.507 351.215C808.707 350.282 804.707 349.215 804.707 348.815C804.707 348.415 808.707 346.949 813.64 345.615C825.774 342.415 834.307 337.882 839.24 331.882C843.374 326.815 848.707 312.815 848.707 306.682C848.707 300.949 850.974 303.349 851.907 309.749ZM63.1068 320.282C68.3068 323.882 66.1735 331.482 60.0402 331.482C54.3068 331.482 52.0402 325.215 56.3068 320.549C58.9735 317.615 59.3735 317.615 63.1068 320.282ZM794.04 325.482C794.04 326.549 785.774 330.415 785.107 329.615C784.574 329.215 786.307 328.015 788.84 326.949C794.04 324.549 794.04 324.682 794.04 325.482ZM103.907 342.282C106.707 362.682 117.507 374.549 136.44 377.615C143.507 378.682 143.64 380.282 136.707 381.349C129.373 382.549 118.04 387.749 114.44 391.615C109.907 396.549 106.173 406.149 104.44 417.349C103.64 422.949 102.707 427.215 102.44 427.082C102.307 426.815 101.24 422.015 100.173 416.415C97.5068 403.082 94.3068 395.749 88.3068 390.549C83.3735 386.282 68.9735 380.815 62.3068 380.815C57.3735 380.815 59.3735 379.615 68.1735 377.215C79.1068 374.415 88.0402 369.615 92.0402 364.149C96.0402 359.082 100.707 345.482 100.707 339.349C100.707 332.949 102.973 334.949 103.907 342.282ZM144.707 355.349C144.707 356.815 144.04 358.415 143.24 358.949C141.24 360.149 138.84 357.349 139.773 354.949C140.973 351.882 144.707 352.282 144.707 355.349ZM912.707 380.149C912.707 382.549 912.04 383.482 910.04 383.482C908.04 383.482 907.374 382.549 907.374 380.149C907.374 377.749 908.04 376.815 910.04 376.815C912.04 376.815 912.707 377.749 912.707 380.149ZM823.107 396.149C823.64 398.815 821.107 400.949 818.44 399.882C816.174 399.082 816.174 394.549 818.44 393.749C820.974 392.682 822.707 393.482 823.107 396.149ZM152.04 400.815C152.44 401.615 151.507 402.149 149.773 402.149C147.373 402.149 147.107 401.882 148.707 400.815C151.24 399.215 151.107 399.215 152.04 400.815ZM45.2402 405.615C48.0402 406.682 48.0402 410.949 45.2402 412.015C42.4402 413.082 40.7068 411.882 40.7068 408.949C40.7068 405.215 41.9068 404.415 45.2402 405.615ZM915.374 406.682C915.374 407.749 891.64 411.349 880.04 412.015C870.04 412.549 869.107 412.549 874.04 411.349C888.974 408.015 915.374 405.082 915.374 406.682ZM919.907 429.615C920.84 432.149 918.574 435.482 915.774 435.482C913.507 435.482 912.174 432.282 913.24 429.482C914.174 426.815 918.84 426.949 919.907 429.615ZM823.107 433.215C823.64 435.882 819.774 437.749 817.774 435.749C815.774 433.749 817.64 429.882 820.307 430.415C821.64 430.682 822.84 431.882 823.107 433.215ZM63.9068 436.282C64.8402 438.682 62.5735 442.149 60.1735 442.149C57.5068 442.149 55.6402 439.482 56.3068 436.682C57.2402 433.482 62.7068 433.215 63.9068 436.282ZM862.707 450.682C865.507 454.949 872.574 458.815 880.04 460.282L885.374 461.215L877.64 463.615C864.707 467.482 860.707 471.482 858.707 482.549C857.64 487.882 855.374 489.349 855.374 484.549C855.374 479.615 850.04 470.415 845.507 467.615C843.107 466.149 837.907 464.149 834.04 463.349L826.84 461.749L835.774 459.615C846.84 456.815 851.907 452.282 854.974 442.415L857.24 435.215L858.84 441.082C859.64 444.282 861.374 448.549 862.707 450.682ZM136.04 448.282C136.04 449.615 134.973 450.949 133.773 451.215C131.373 451.615 130.307 447.615 132.307 445.615C133.907 444.149 136.04 445.615 136.04 448.282ZM36.4402 451.749C41.1068 456.415 34.5735 465.349 28.8402 462.282C22.8402 458.949 24.4402 450.149 31.1068 450.149C33.2402 450.149 35.5068 450.815 36.4402 451.749ZM108.173 475.749C109.373 477.082 113.24 478.949 116.573 480.015C121.107 481.349 121.773 481.882 119.373 482.015C115.24 482.149 108.04 486.549 106.307 489.749C105.507 491.082 104.44 494.549 103.907 497.482L102.84 502.815L101.773 496.949C101.24 493.749 99.7735 489.882 98.4402 488.415C95.5068 485.215 88.7068 482.149 83.7735 482.015C80.5735 481.882 80.7068 481.749 85.1068 480.682C93.1068 478.815 97.5068 475.882 99.9068 470.949C101.107 468.415 102.04 465.615 102.173 464.549C102.173 463.615 103.107 465.215 104.173 468.015C105.24 470.949 107.107 474.415 108.173 475.749ZM921.774 497.749C922.574 503.215 915.24 505.349 912.174 500.549C911.107 498.815 911.374 497.615 913.24 495.615C916.174 492.415 921.107 493.615 921.774 497.749ZM834.04 501.615C834.04 501.882 831.907 502.149 829.374 502.149C826.84 502.149 824.707 501.615 824.707 501.082C824.707 500.549 826.84 500.282 829.374 500.549C831.907 500.815 834.04 501.349 834.04 501.615ZM73.7735 524.015C76.3068 530.282 79.7735 532.549 90.4402 535.482L98.5735 537.749L92.0402 539.349C78.8402 542.682 73.6402 547.749 71.9068 559.349C70.9735 565.749 69.6402 564.815 68.1735 556.549C66.5735 547.349 59.6402 542.015 45.3735 538.815C41.6402 537.882 42.0402 537.615 50.0402 535.482C60.7068 532.415 66.8402 526.549 68.1735 517.882C69.1068 512.549 69.2402 512.415 70.4402 515.482C71.1068 517.349 72.5735 521.082 73.7735 524.015ZM895.907 518.415C897.774 521.482 895.507 525.349 891.64 525.882C889.507 526.149 888.574 525.482 887.907 522.949C887.507 521.082 887.507 518.549 887.907 517.349C888.974 514.682 893.907 515.349 895.907 518.415ZM139.107 528.549C139.373 530.415 138.84 531.482 137.507 531.482C134.973 531.482 133.64 529.215 134.573 526.682C135.64 523.749 138.573 525.082 139.107 528.549ZM838.44 531.615C864.174 536.815 907.774 548.682 909.907 550.949C912.174 553.349 873.774 544.682 844.174 536.149C815.907 528.149 814.04 526.549 838.44 531.615ZM827.107 559.749C826.84 561.482 825.774 562.815 824.707 562.815C823.64 562.815 822.574 561.482 822.307 559.749C821.907 557.482 822.574 556.815 824.707 556.815C826.84 556.815 827.507 557.482 827.107 559.749ZM146.707 573.749C131.24 581.882 68.8402 604.949 63.1068 604.815C60.0402 604.682 74.4402 597.882 92.0402 591.082C111.64 583.615 150.04 570.282 152.04 570.282C152.84 570.282 150.44 571.882 146.707 573.749ZM901.774 579.082C902.307 582.415 898.84 584.015 896.707 581.349C895.374 579.882 895.374 579.082 896.707 577.482C898.974 574.815 901.24 575.615 901.774 579.082ZM56.7068 584.015C56.7068 587.215 53.6402 589.482 51.2402 588.015C50.5735 587.615 50.0402 585.882 50.0402 584.015C50.0402 581.482 50.7068 580.815 53.3735 580.815C56.0402 580.815 56.7068 581.482 56.7068 584.015ZM807.107 588.015C807.64 590.815 805.24 592.949 802.44 591.882C800.574 591.215 800.04 587.215 801.64 585.615C803.24 584.015 806.707 585.482 807.107 588.015ZM840.707 600.549C840.707 601.482 841.907 604.815 843.507 608.149C846.707 614.949 851.907 618.682 862.174 621.349C869.107 623.082 869.24 623.215 865.374 624.149C856.974 626.149 852.707 627.749 849.24 630.415C845.107 633.749 840.84 642.549 840.707 647.749C840.707 649.749 840.174 651.749 839.374 652.149C838.574 652.549 838.04 651.615 838.04 649.882C838.04 638.549 830.707 629.082 819.774 626.282C816.307 625.349 812.44 624.282 811.374 623.882C810.307 623.615 813.374 622.015 818.307 620.282C823.24 618.682 828.574 616.149 830.174 614.682C833.774 611.615 837.907 602.682 838.04 598.149C838.04 595.482 838.307 595.215 839.374 596.815C840.04 597.882 840.707 599.615 840.707 600.549ZM161.507 598.815C158.307 601.215 138.707 611.482 137.24 611.482C135.24 611.482 142.573 606.949 152.707 601.882C163.507 596.549 165.507 595.749 161.507 598.815ZM776.307 618.949C777.24 621.482 773.64 625.482 771.507 624.282C770.707 623.749 770.04 621.882 770.04 620.015C770.04 617.749 770.707 616.815 772.707 616.815C774.174 616.815 775.774 617.749 776.307 618.949ZM172.707 626.149C162.707 633.749 94.7068 671.215 93.2402 669.749C92.4402 669.082 104.573 661.082 120.307 652.015C133.907 644.015 173.64 623.482 175.107 623.482C175.64 623.482 174.573 624.682 172.707 626.149ZM891.374 634.815C891.374 637.215 890.707 638.149 888.707 638.149C886.707 638.149 886.04 637.215 886.04 634.815C886.04 632.415 886.707 631.482 888.707 631.482C890.707 631.482 891.374 632.415 891.374 634.815ZM82.8402 644.149C86.9735 650.549 80.8402 657.615 74.5735 653.482C71.1068 651.215 70.1735 645.215 72.9735 642.415C75.6402 639.749 80.4402 640.549 82.8402 644.149ZM194.04 648.149C191.107 651.615 158.307 677.615 147.507 684.949C133.64 694.549 139.507 688.149 159.373 672.282C172.307 661.882 193.507 646.415 195.24 646.282C195.507 646.149 194.973 647.082 194.04 648.149ZM768.974 663.615C774.307 668.815 776.84 671.749 774.44 670.282C772.174 668.682 765.907 663.215 760.44 658.015C755.107 652.815 752.574 649.882 754.974 651.349C757.24 652.949 763.507 658.415 768.974 663.615ZM876.574 660.015C878.574 662.415 876.974 666.149 874.04 666.149C872.707 666.149 871.24 665.215 870.84 664.015C870.04 661.882 872.04 658.149 874.04 658.149C874.574 658.149 875.774 658.949 876.574 660.015ZM236.04 687.349C239.907 693.082 249.374 698.815 257.374 700.149C266.707 701.882 266.707 702.949 257.24 705.349C240.174 709.482 233.24 717.482 229.773 737.082L228.307 745.482L226.44 736.282C222.974 719.349 215.907 710.415 202.973 706.949C199.24 706.015 193.907 704.549 191.373 703.882L186.707 702.682L194.04 700.815C213.64 696.149 221.64 689.349 225.507 674.282L227.907 664.815L230.307 673.482C231.64 678.282 234.307 684.549 236.04 687.349ZM824.707 682.949C863.774 709.215 861.64 707.349 858.44 711.349L856.04 714.282L844.707 704.549C838.44 699.215 826.574 689.215 818.44 682.282C810.174 675.349 803.374 669.482 803.374 669.215C803.374 668.682 809.24 672.549 824.707 682.949ZM726.974 689.082C733.374 695.082 729.64 704.815 720.974 704.815C714.84 704.815 711.374 701.615 711.374 695.882C711.374 687.215 720.574 683.082 726.974 689.082ZM677.107 709.482L679.907 713.482L676.44 710.415C674.574 708.682 671.107 704.549 668.84 701.082L664.44 694.815L669.374 700.149C672.04 703.082 675.507 707.215 677.107 709.482ZM772.04 710.149C775.907 726.682 782.707 737.482 792.974 742.949C794.84 743.882 801.374 746.149 807.374 747.882L818.307 751.082L808.44 753.482C791.374 757.615 782.974 763.215 777.374 774.149C774.307 780.282 770.04 795.482 770.04 800.549C770.04 802.015 769.507 803.615 768.974 804.015C768.44 804.415 767.24 799.882 766.307 794.149C764.307 780.282 760.44 771.482 753.374 764.949C746.707 758.815 740.974 756.149 728.174 753.215L718.974 751.082L729.907 747.882C749.107 742.415 756.04 737.482 761.374 725.749C763.107 722.015 765.24 714.949 766.04 710.149C767.774 700.415 768.84 696.815 769.374 698.815C769.64 699.482 770.84 704.682 772.04 710.149ZM298.707 715.082C290.707 729.615 271.907 758.149 270.44 758.149C266.44 758.149 268.174 754.415 279.774 738.549C286.574 729.215 294.04 718.682 296.44 715.082C298.84 711.615 301.107 708.815 301.507 708.815C301.907 708.815 300.707 711.615 298.707 715.082ZM377.24 712.282C380.04 715.082 379.907 718.549 376.84 721.349C374.84 723.215 373.64 723.349 371.507 722.149C367.507 720.015 367.24 714.682 371.107 711.749C373.907 709.615 374.707 709.749 377.24 712.282ZM334.707 718.815C334.707 723.482 331.107 726.149 327.774 724.015C324.44 722.015 324.04 718.415 326.707 715.482C329.907 711.882 334.707 713.882 334.707 718.815ZM428.707 722.815C430.307 724.549 433.24 726.282 435.107 726.815L438.707 727.749L434.707 729.349C428.974 731.882 426.174 735.615 424.84 742.282L423.907 748.149L422.84 742.815C421.64 735.615 418.307 731.749 412.04 729.482C407.64 728.015 407.107 727.615 409.374 726.815C415.907 724.815 418.84 722.415 421.24 717.482L423.907 712.282L424.84 716.015C425.507 718.149 427.24 721.215 428.707 722.815ZM628.707 716.149C632.174 720.415 626.974 726.949 622.44 724.015C619.24 722.015 618.84 718.949 621.374 716.282C624.04 713.615 626.574 713.615 628.707 716.149ZM597.507 732.949C599.774 735.215 603.774 737.615 607.24 738.415L613.107 739.882L607.907 741.482C605.107 742.282 601.374 743.749 599.774 744.682C595.907 746.682 592.04 754.282 590.707 762.149L589.64 768.149L588.174 760.815C587.374 756.682 585.374 751.482 583.64 749.215C580.707 745.082 572.574 740.949 566.974 740.682C565.374 740.682 567.24 739.615 571.374 738.149C580.707 734.949 586.974 728.415 588.174 720.549L589.107 714.949L591.374 722.015C592.707 725.882 595.374 730.815 597.507 732.949ZM129.64 726.949C131.64 730.149 131.64 730.815 129.907 734.015C127.24 738.682 121.64 739.349 118.84 735.215C116.173 731.349 116.173 728.949 118.973 725.882C122.173 722.415 126.84 722.815 129.64 726.949ZM547.907 752.815C550.174 769.215 551.907 788.415 550.84 787.349C549.507 786.015 544.707 753.349 544.04 740.815C543.374 726.149 544.574 730.149 547.907 752.815ZM166.307 741.749C171.373 746.282 167.773 755.482 160.973 755.482C153.773 755.482 150.173 747.215 154.973 741.882C157.64 738.949 163.107 738.815 166.307 741.749ZM664.707 742.149C667.907 745.349 668.04 747.215 665.24 751.215C662.974 754.415 656.974 755.215 654.307 752.549C651.507 749.749 652.307 742.682 655.774 741.082C660.04 738.949 661.774 739.215 664.707 742.149ZM397.774 751.215C398.174 753.349 397.507 754.149 395.507 754.149C392.307 754.149 390.84 752.149 391.907 749.349C393.107 746.282 397.24 747.615 397.774 751.215ZM363.907 760.015C364.974 765.882 370.307 771.082 377.24 773.082L382.707 774.549L377.64 775.882C370.84 777.482 365.107 783.615 363.64 790.549C362.44 796.149 361.774 795.749 360.04 788.282C358.974 783.215 352.307 777.082 346.574 776.015C341.374 775.082 341.64 773.482 347.107 772.415C352.974 771.215 359.107 765.349 360.174 760.015C361.24 754.282 362.84 754.149 363.907 760.015ZM314.84 767.082C313.774 769.215 311.907 772.015 310.707 773.482C308.84 775.882 308.84 775.615 310.84 771.482C313.107 766.682 315.24 763.482 316.174 763.482C316.574 763.482 315.907 765.082 314.84 767.082ZM645.507 786.282C647.374 788.282 652.44 790.949 656.574 792.282L664.174 794.682L656.174 797.482C645.907 800.949 641.24 806.415 638.84 818.282L637.107 826.815L636.174 820.149C634.04 806.415 628.307 799.749 615.374 796.415L608.04 794.549L612.707 793.482C625.107 790.815 633.64 783.482 636.174 773.615C637.107 769.749 637.107 769.882 639.507 776.149C640.84 779.749 643.507 784.282 645.507 786.282ZM444.04 774.282C445.107 777.749 441.907 781.482 438.84 780.415C436.707 779.615 435.907 774.015 437.64 772.415C439.507 770.549 443.24 771.615 444.04 774.282ZM699.374 795.482L702.04 800.149L698.44 795.882C696.307 793.615 693.64 789.749 692.307 787.215L689.907 782.815L693.374 786.815C695.24 788.949 697.907 792.949 699.374 795.482ZM409.774 799.082C410.04 802.415 409.64 803.482 407.374 804.149C402.174 805.749 398.44 799.615 402.307 795.749C405.374 792.682 409.374 794.415 409.774 799.082ZM536.307 808.282C536.574 809.215 535.774 810.815 534.574 812.149C532.707 814.015 532.04 814.015 530.44 812.415C527.907 809.882 529.64 805.882 533.107 806.415C534.574 806.682 536.04 807.482 536.307 808.282ZM586.574 843.749C592.84 862.549 598.04 878.549 598.04 879.215C598.04 880.282 591.24 882.415 590.44 881.615C590.307 881.482 586.84 866.682 582.84 848.682C578.84 830.682 575.107 814.149 574.574 812.015C572.174 801.882 576.174 812.549 586.574 843.749ZM722.574 818.282C727.774 822.415 727.107 828.149 721.107 831.349C717.507 833.215 713.64 831.615 711.374 827.482C709.507 824.015 709.64 822.949 712.84 818.949C716.174 814.815 717.907 814.682 722.574 818.282ZM248.707 828.016C249.507 829.082 250.04 831.349 249.773 833.082C249.507 835.482 248.574 836.149 245.374 836.149C242.174 836.149 241.24 835.482 240.973 832.949C240.573 830.949 241.373 828.949 242.84 827.882C245.907 825.615 246.707 825.749 248.707 828.016ZM675.907 851.749C680.44 858.282 676.974 866.149 669.64 866.149C664.44 866.149 660.707 862.682 660.707 857.882C660.707 849.882 671.507 845.482 675.907 851.749ZM532.44 861.615C532.974 864.949 529.774 867.882 526.84 866.682C524.707 865.882 523.907 860.682 525.64 858.949C527.507 857.082 532.04 858.815 532.44 861.615ZM294.574 870.949C295.64 873.749 294.44 875.482 291.24 875.482C289.64 875.482 288.707 874.549 288.707 873.082C288.707 868.549 293.107 867.082 294.574 870.949ZM495.107 902.815C497.374 906.815 497.374 906.815 493.107 911.215C490.174 914.149 488.707 915.082 488.707 913.749C488.707 912.549 487.24 910.549 485.374 909.082C482.574 906.815 482.307 906.149 484.04 904.815C486.04 903.215 487.907 898.015 489.507 889.482L490.44 884.149L491.64 891.482C492.307 895.482 493.774 900.549 495.107 902.815ZM335.107 891.215C335.507 893.349 334.84 894.149 332.974 894.149C329.374 894.149 328.574 892.815 330.174 889.882C331.907 886.682 334.574 887.349 335.107 891.215ZM427.374 900.282C428.84 901.882 428.84 902.682 427.107 904.415C424.574 906.815 422.04 905.749 422.04 902.282C422.04 897.882 424.707 896.949 427.374 900.282ZM393.24 902.949C394.174 905.482 391.907 908.815 389.107 908.815C386.84 908.815 385.507 905.615 386.574 902.815C387.507 900.149 392.174 900.282 393.24 902.949ZM542.707 905.482C542.707 909.082 542.307 909.482 538.707 909.482C535.907 909.482 534.574 908.815 534.307 907.082C533.507 902.682 535.107 900.549 538.974 901.082C542.174 901.482 542.707 902.149 542.707 905.482Z" fill="black"/>
<path d="M440.707 0.81543C366.707 7.61543 294.04 31.3488 230.04 69.7488C129.907 129.882 52.8402 228.682 18.3068 341.482C12.3068 361.082 4.44016 398.282 1.77349 420.149C-0.893177 442.282 -0.493177 505.882 2.57349 529.482C24.3068 701.749 134.84 843.215 300.84 911.482C357.107 934.549 416.44 946.149 479.374 946.149C508.44 946.149 527.24 944.682 554.84 940.015C653.774 923.749 744.174 878.415 815.24 809.482C894.707 732.415 940.84 642.149 956.04 534.149C959.507 510.415 960.174 452.015 957.507 426.149C945.107 308.415 886.44 197.215 794.574 117.349C745.64 74.8154 676.707 37.4821 612.707 18.8154C592.707 13.0821 556.974 5.74876 534.04 2.81543C514.44 0.282096 458.974 -0.917904 440.707 0.81543ZM495.107 30.4154C494.707 33.7487 490.574 35.2154 488.44 33.082C486.174 30.8154 488.307 27.4822 492.04 27.4822C494.974 27.4822 495.507 28.0154 495.107 30.4154ZM452.707 35.4822C454.84 39.6155 452.174 43.7487 447.64 43.2153C445.107 42.9487 443.907 41.8821 443.64 39.7488C442.707 33.4821 449.907 30.1488 452.707 35.4822ZM397.907 52.8154C400.04 67.2154 404.974 82.1488 410.174 89.7488C418.174 101.215 433.24 108.949 455.64 112.949C460.707 113.882 464.574 114.815 464.307 114.949C464.174 115.082 457.374 116.815 449.24 118.549C414.707 126.415 404.574 137.749 398.04 176.149L395.907 189.482L394.174 180.149C390.04 156.415 384.574 142.549 375.774 133.615C367.774 125.482 359.507 122.282 332.174 116.815L324.174 115.215L339.107 111.482C358.04 106.682 366.974 102.549 375.107 94.9487C385.107 85.6154 390.84 70.682 393.507 47.082C394.04 42.8154 394.84 39.7487 395.374 40.4154C395.907 40.9487 396.974 46.5488 397.907 52.8154ZM569.774 41.082C572.174 43.482 571.64 47.2154 568.84 48.8154C565.507 50.5488 562.44 49.3487 561.374 46.0154C559.774 40.9487 566.04 37.3487 569.774 41.082ZM605.64 51.3488C606.574 52.5488 607.374 54.5488 607.374 55.7488C607.374 58.6821 602.84 63.4822 600.04 63.4822C597.374 63.4822 592.707 58.682 592.707 56.1487C592.707 54.9487 594.174 52.5488 595.907 50.8154C599.374 47.3488 602.574 47.4821 605.64 51.3488ZM350.707 58.8154C350.707 60.5488 349.64 61.6154 347.774 61.8821C345.507 62.2821 344.707 61.6154 344.707 59.7488C344.707 58.4154 345.107 56.8154 345.64 56.2821C347.374 54.5488 350.707 56.1488 350.707 58.8154ZM530.574 63.4822C531.774 70.8155 537.774 77.3488 545.507 79.4822L551.64 81.2155L544.84 83.7488C536.84 86.8154 532.974 91.6154 530.574 101.349C528.974 108.282 528.174 107.882 526.84 99.3488C526.307 96.5488 524.707 92.8154 523.107 90.8154C519.907 86.6821 511.107 82.282 506.04 82.1487C503.64 82.0153 504.707 81.3487 509.24 80.0154C512.84 78.8154 517.24 76.9487 518.974 75.8821C522.84 73.3487 527.374 64.8153 527.374 60.1487C527.374 54.9487 529.507 57.2155 530.574 63.4822ZM484.574 72.8154C484.44 82.4154 482.174 83.0822 482.174 73.4822C482.04 66.9488 482.44 64.8153 483.374 66.1487C484.04 67.2153 484.574 70.2821 484.574 72.8154ZM444.707 69.4822C446.84 72.1488 445.507 75.4822 442.174 75.4822C438.707 75.4822 437.64 73.482 439.374 70.1487C441.107 66.9487 442.44 66.8155 444.707 69.4822ZM310.174 71.4822C310.707 71.4822 312.174 73.3488 313.374 75.4822C317.907 84.1488 307.64 91.7488 300.707 84.8154C299.24 83.3488 298.04 80.6821 298.04 78.9487C298.04 75.2154 304.174 69.6154 307.107 70.8154C308.04 71.2154 309.507 71.4822 310.174 71.4822ZM638.04 76.8154C638.04 80.0154 634.574 81.8821 632.44 79.7488C630.307 77.6154 632.174 74.1487 635.374 74.1487C637.107 74.1487 638.04 75.0821 638.04 76.8154ZM685.374 94.6821C686.707 95.6155 687.507 97.3487 687.107 98.4154C685.907 101.215 658.307 139.749 655.107 142.815C653.107 144.682 653.774 142.949 656.974 136.815C659.64 132.015 665.774 120.149 670.574 110.415C675.374 100.815 680.174 92.8154 681.107 92.8154C682.04 92.8154 684.04 93.6155 685.374 94.6821ZM641.774 102.415C641.507 104.415 640.44 105.482 638.707 105.482C636.974 105.482 635.907 104.415 635.64 102.415C635.24 100.015 635.774 99.4822 638.707 99.4822C641.64 99.4822 642.174 100.015 641.774 102.415ZM262.04 111.482C267.24 116.682 263.64 124.815 256.173 124.815C250.84 124.815 248.707 122.815 248.707 117.615C248.707 109.749 256.573 106.016 262.04 111.482ZM497.24 116.415C498.307 118.949 494.974 122.815 492.84 121.615C491.24 120.549 490.84 116.415 492.307 115.082C493.907 113.482 496.44 114.149 497.24 116.415ZM735.907 133.349C738.707 137.749 743.374 140.815 751.64 143.615L758.307 145.882L750.574 148.282C738.84 151.882 731.374 161.482 731.374 172.682C731.374 174.282 730.84 175.215 730.04 174.815C729.374 174.415 728.707 172.415 728.707 170.415C728.574 164.282 723.907 155.882 718.44 152.282C715.64 150.415 710.04 148.149 706.04 147.349L698.707 145.749L704.707 144.149C718.84 140.549 724.84 135.615 727.507 125.615C730.04 116.149 730.307 116.015 732.04 123.082C732.84 126.815 734.574 131.482 735.907 133.349ZM569.24 135.082C571.507 139.482 580.574 144.815 586.174 144.815C588.307 144.949 586.974 145.749 582.307 147.349C578.574 148.682 574.04 150.949 572.574 152.282C568.974 155.482 566.04 162.149 566.04 167.482C566.04 169.616 565.507 171.482 564.707 171.482C564.04 171.482 563.374 170.415 563.374 169.082C563.374 163.882 560.174 156.149 556.707 152.682C554.707 150.549 550.174 148.282 546.574 147.349L540.174 145.749L547.107 143.482C550.84 142.282 554.974 140.416 556.04 139.482C559.24 136.816 563.374 128.149 563.507 123.882C563.64 120.549 563.774 120.815 565.374 125.615C566.307 128.549 568.04 132.815 569.24 135.082ZM220.44 139.082C226.174 147.749 231.373 155.749 231.907 156.815C232.573 157.882 226.307 152.149 217.907 143.882C202.973 129.082 202.84 128.949 205.373 126.149C206.707 124.682 208.307 123.482 208.84 123.482C209.507 123.482 214.707 130.549 220.44 139.082ZM610.974 142.949C612.04 145.749 608.44 149.082 605.64 148.015C604.44 147.615 603.374 145.749 603.374 144.015C603.374 141.482 604.04 140.815 606.707 140.815C608.574 140.815 610.44 141.749 610.974 142.949ZM311.107 145.615C311.64 149.349 307.374 151.082 305.107 148.149C302.974 145.082 304.44 141.882 307.907 142.415C309.64 142.682 310.84 143.882 311.107 145.615ZM521.64 159.749C520.707 171.882 518.44 183.749 518.174 177.215C517.907 172.549 520.974 147.482 521.774 147.482C522.174 147.482 522.04 153.082 521.64 159.749ZM289.507 168.815C292.04 171.082 296.84 173.615 300.174 174.415C303.374 175.349 306.04 176.415 306.04 176.815C306.04 177.349 303.107 178.415 299.374 179.349C290.707 181.615 284.307 188.415 282.04 198.282L280.307 205.482L278.707 198.549C276.04 186.949 269.907 180.549 259.374 178.682C251.774 177.215 251.907 176.549 260.307 173.882C270.44 170.815 277.507 163.615 278.974 155.215L279.774 149.482L282.307 157.082C284.04 162.149 286.44 166.015 289.507 168.815ZM354.04 159.482C357.374 166.149 359.507 171.482 358.707 171.482C358.04 171.482 353.24 162.282 351.374 157.482C349.374 152.282 350.974 153.616 354.04 159.482ZM459.907 167.082C463.107 196.282 464.707 212.949 464.574 218.149C464.307 225.349 464.707 226.549 458.707 194.149C456.174 179.882 453.64 166.549 453.24 164.549C452.44 161.215 453.107 160.549 458.174 159.615C458.707 159.615 459.374 162.949 459.907 167.082ZM796.707 164.015C796.707 167.749 793.507 169.482 791.374 166.815C789.24 164.149 790.707 160.815 794.04 160.815C795.907 160.815 796.707 161.749 796.707 164.015ZM191.773 185.482C194.173 188.549 197.507 190.682 201.773 192.016C206.84 193.482 207.507 194.015 205.373 194.815C196.973 197.749 194.974 198.815 191.507 202.815C189.107 205.615 187.373 209.482 186.707 213.615L185.64 220.149L184.04 214.149C180.973 202.682 177.64 198.949 167.107 195.482L160.04 193.215L165.373 192.282C175.507 190.415 184.307 181.749 184.84 173.215C184.973 171.882 185.64 173.082 186.574 175.882C187.374 178.682 189.773 182.949 191.773 185.482ZM620.574 176.015C622.574 178.415 620.974 182.149 618.04 182.149C615.107 182.149 614.04 179.615 615.64 176.415C617.107 173.615 618.574 173.482 620.574 176.015ZM689.24 177.615C692.174 180.415 691.907 183.882 688.707 186.815C682.84 192.149 675.774 183.215 681.507 177.615C682.574 176.415 684.44 175.482 685.374 175.482C686.307 175.482 688.174 176.415 689.24 177.615ZM494.307 214.149C492.974 221.349 492.974 221.349 492.84 209.349C492.84 202.682 493.107 195.082 493.774 192.682C495.24 185.615 495.774 205.082 494.307 214.149ZM245.773 197.349C246.04 198.682 245.64 200.415 244.84 201.215C242.707 203.349 238.973 199.349 240.173 196.282C241.24 193.349 245.24 194.015 245.773 197.349ZM735.24 199.749C737.507 205.482 731.107 211.082 726.707 207.482C724.307 205.482 724.174 200.549 726.307 198.415C728.974 195.749 734.04 196.549 735.24 199.749ZM548.04 202.549C549.107 204.149 550.04 206.282 550.04 207.349C550.04 210.415 544.574 215.482 541.24 215.482C536.84 215.482 532.707 209.615 533.907 205.082C535.774 198.282 544.04 196.815 548.04 202.549ZM334.04 205.482C336.307 208.149 334.707 211.482 331.374 211.482C329.907 211.482 328.307 210.549 327.907 209.482C327.107 207.482 329.374 203.482 331.374 203.482C331.907 203.482 333.107 204.415 334.04 205.482ZM827.107 205.082C831.507 209.482 825.774 218.282 820.44 215.349C816.974 213.482 816.04 210.549 817.774 206.682C819.507 203.215 824.307 202.282 827.107 205.082ZM649.774 212.549C650.707 218.815 643.507 222.149 640.707 216.815C638.574 212.682 641.24 208.549 645.774 209.082C648.307 209.349 649.507 210.415 649.774 212.549ZM771.374 219.749C758.574 231.882 748.44 240.149 751.374 236.149C753.64 233.082 769.774 217.882 776.44 212.415C785.107 205.349 782.574 209.082 771.374 219.749ZM373.107 213.882C378.574 218.682 374.174 229.082 366.707 229.082C356.44 229.082 354.84 214.415 364.707 211.215C367.24 210.415 370.04 211.349 373.107 213.882ZM138.173 214.682C141.773 222.415 134.573 229.482 128.707 224.149C125.773 221.482 125.24 215.482 127.64 213.082C130.573 210.149 136.573 211.082 138.173 214.682ZM424.04 222.949L424.707 226.815L422.84 222.815C421.907 220.549 420.707 216.949 420.307 214.815L419.507 210.815L421.374 214.949C422.44 217.216 423.507 220.816 424.04 222.949ZM302.574 215.349C303.907 217.482 301.907 220.815 299.24 220.815C296.707 220.815 295.64 216.949 297.64 215.082C298.84 213.749 301.774 213.882 302.574 215.349ZM602.04 216.815C606.84 221.615 604.84 230.416 598.44 232.949C593.774 234.682 588.174 232.416 586.174 228.016C584.04 223.349 584.307 221.615 587.507 217.615C590.974 213.215 598.04 212.815 602.04 216.815ZM216.707 224.149C218.04 225.749 218.04 226.549 216.707 228.149C213.373 232.149 208.574 229.082 210.574 224.149C210.974 223.082 212.173 222.149 213.107 222.149C214.173 222.149 215.773 223.082 216.707 224.149ZM791.107 227.749C795.907 232.549 789.64 240.549 784.574 236.016C780.44 232.282 782.174 226.149 787.374 226.149C788.574 226.149 790.174 226.815 791.107 227.749ZM396.707 230.016C396.707 231.482 396.174 232.949 395.507 233.349C393.907 234.415 390.974 230.549 392.04 228.815C393.507 226.549 396.707 227.349 396.707 230.016ZM105.107 235.749C105.907 238.282 104.707 240.815 102.707 240.815C100.307 240.815 98.9735 238.549 99.9068 236.149C100.84 233.749 104.307 233.482 105.107 235.749ZM163.24 246.149C173.24 253.082 192.707 268.549 192.707 269.615C192.707 271.349 154.04 244.149 152.173 240.949C150.307 238.016 153.773 239.615 163.24 246.149ZM279.374 256.282C287.107 260.682 303.774 270.282 316.44 277.349C329.107 284.549 339.64 290.949 340.04 291.349C340.307 291.882 336.307 295.482 330.974 299.215C325.64 303.082 318.707 308.549 315.374 311.482C309.64 316.416 310.174 316.282 324.707 308.015C345.64 296.149 372.44 283.082 385.507 278.282C411.774 268.682 445.374 263.482 481.24 263.482C526.04 263.482 563.64 271.349 603.907 289.482C608.307 291.349 612.84 292.682 614.174 292.415C616.04 291.882 669.774 261.882 698.44 245.349C702.707 242.815 706.707 240.815 707.24 240.815C710.04 240.815 735.24 286.949 746.44 312.949C784.707 400.815 794.307 479.882 773.907 540.015C764.04 569.082 750.307 592.282 731.507 611.882C698.974 645.615 660.174 662.682 588.04 674.682C562.174 679.082 536.574 682.015 514.174 683.082L496.44 683.882L497.107 690.015C497.507 693.349 499.507 705.082 501.507 716.149C504.707 733.482 505.24 739.349 505.24 760.815C505.24 782.149 504.84 786.949 502.307 796.015C493.907 826.015 475.24 849.615 448.707 863.349C414.307 881.215 374.707 880.415 336.04 861.215C323.774 855.215 317.24 850.682 288.84 829.082C263.64 810.015 245.774 802.549 217.374 799.482C191.907 796.682 182.707 795.215 174.04 792.549C164.307 789.615 158.04 786.549 158.04 784.949C158.04 783.215 180.84 778.149 196.574 776.549C227.774 773.215 262.707 780.815 289.907 796.682C294.84 799.615 307.774 808.682 318.707 816.815C347.64 838.549 363.774 845.482 388.04 846.949C425.24 849.349 457.374 827.749 469.64 792.149C472.974 782.415 473.24 779.882 473.374 761.482C473.374 743.215 472.84 739.082 467.64 712.815L461.774 684.015L432.307 681.749C364.974 676.682 311.24 664.815 276.44 647.482C250.44 634.549 225.774 613.215 210.574 590.815C163.507 521.482 163.773 428.282 211.507 316.416C222.84 290.016 239.373 258.149 248.973 244.415L251.64 240.682L258.44 244.549C262.307 246.549 271.64 251.882 279.374 256.282ZM856.574 252.682C846.707 260.682 782.04 298.415 782.04 296.149C782.04 294.149 827.374 265.482 846.707 255.349C858.84 248.949 862.44 247.882 856.574 252.682ZM117.773 260.415C117.373 264.549 113.24 266.282 111.907 262.949C110.707 259.749 112.307 256.815 115.373 256.815C117.64 256.815 118.173 257.482 117.773 260.415ZM770.04 264.016C770.04 265.349 760.574 271.882 759.907 271.082C759.507 270.682 761.507 268.816 764.307 266.949C769.507 263.349 770.04 263.082 770.04 264.016ZM146.44 303.082C148.973 307.882 153.64 311.482 166.707 318.549C176.307 323.882 176.04 323.882 159.373 320.149C152.44 318.549 146.573 318.149 140.04 318.682L130.707 319.482L126.973 314.815C124.307 311.349 118.173 307.615 104.44 300.815C94.0402 295.615 86.3068 291.482 87.1068 291.482C88.0402 291.482 94.1735 293.215 100.973 295.482C118.573 301.082 123.507 301.616 130.707 298.949C135.773 296.949 137.107 295.616 139.64 290.016L142.707 283.349L143.373 291.082C143.773 295.349 145.107 300.682 146.44 303.082ZM889.107 301.082C890.04 303.749 887.507 307.482 885.374 306.682C882.307 305.482 882.84 299.482 885.907 299.482C887.374 299.482 888.707 300.282 889.107 301.082ZM851.907 309.749C852.974 318.549 859.374 331.482 864.84 336.015C870.307 340.682 875.774 343.082 887.374 346.149C895.374 348.415 895.774 348.549 892.04 349.482C877.107 352.949 869.24 356.282 863.907 361.349C858.04 367.082 853.24 377.749 851.774 388.282C850.707 396.149 849.24 395.615 848.174 387.082C847.107 379.082 842.04 367.082 837.64 362.416C833.24 357.616 823.24 353.082 813.507 351.215C808.707 350.282 804.707 349.215 804.707 348.815C804.707 348.415 808.707 346.949 813.64 345.615C825.774 342.415 834.307 337.882 839.24 331.882C843.374 326.815 848.707 312.815 848.707 306.682C848.707 300.949 850.974 303.349 851.907 309.749ZM63.1068 320.282C68.3068 323.882 66.1735 331.482 60.0402 331.482C54.3068 331.482 52.0402 325.215 56.3068 320.549C58.9735 317.615 59.3735 317.615 63.1068 320.282ZM794.04 325.482C794.04 326.549 785.774 330.415 785.107 329.615C784.574 329.215 786.307 328.015 788.84 326.949C794.04 324.549 794.04 324.682 794.04 325.482ZM103.907 342.282C106.707 362.682 117.507 374.549 136.44 377.615C143.507 378.682 143.64 380.282 136.707 381.349C129.373 382.549 118.04 387.749 114.44 391.615C109.907 396.549 106.173 406.149 104.44 417.349C103.64 422.949 102.707 427.215 102.44 427.082C102.307 426.815 101.24 422.015 100.173 416.415C97.5068 403.082 94.3068 395.749 88.3068 390.549C83.3735 386.282 68.9735 380.815 62.3068 380.815C57.3735 380.815 59.3735 379.615 68.1735 377.215C79.1068 374.415 88.0402 369.615 92.0402 364.149C96.0402 359.082 100.707 345.482 100.707 339.349C100.707 332.949 102.973 334.949 103.907 342.282ZM144.707 355.349C144.707 356.815 144.04 358.415 143.24 358.949C141.24 360.149 138.84 357.349 139.773 354.949C140.973 351.882 144.707 352.282 144.707 355.349ZM912.707 380.149C912.707 382.549 912.04 383.482 910.04 383.482C908.04 383.482 907.374 382.549 907.374 380.149C907.374 377.749 908.04 376.815 910.04 376.815C912.04 376.815 912.707 377.749 912.707 380.149ZM823.107 396.149C823.64 398.815 821.107 400.949 818.44 399.882C816.174 399.082 816.174 394.549 818.44 393.749C820.974 392.682 822.707 393.482 823.107 396.149ZM152.04 400.815C152.44 401.615 151.507 402.149 149.773 402.149C147.373 402.149 147.107 401.882 148.707 400.815C151.24 399.215 151.107 399.215 152.04 400.815ZM45.2402 405.615C48.0402 406.682 48.0402 410.949 45.2402 412.015C42.4402 413.082 40.7068 411.882 40.7068 408.949C40.7068 405.215 41.9068 404.415 45.2402 405.615ZM915.374 406.682C915.374 407.749 891.64 411.349 880.04 412.015C870.04 412.549 869.107 412.549 874.04 411.349C888.974 408.015 915.374 405.082 915.374 406.682ZM919.907 429.615C920.84 432.149 918.574 435.482 915.774 435.482C913.507 435.482 912.174 432.282 913.24 429.482C914.174 426.815 918.84 426.949 919.907 429.615ZM823.107 433.215C823.64 435.882 819.774 437.749 817.774 435.749C815.774 433.749 817.64 429.882 820.307 430.415C821.64 430.682 822.84 431.882 823.107 433.215ZM63.9068 436.282C64.8402 438.682 62.5735 442.149 60.1735 442.149C57.5068 442.149 55.6402 439.482 56.3068 436.682C57.2402 433.482 62.7068 433.215 63.9068 436.282ZM862.707 450.682C865.507 454.949 872.574 458.815 880.04 460.282L885.374 461.215L877.64 463.615C864.707 467.482 860.707 471.482 858.707 482.549C857.64 487.882 855.374 489.349 855.374 484.549C855.374 479.615 850.04 470.415 845.507 467.615C843.107 466.149 837.907 464.149 834.04 463.349L826.84 461.749L835.774 459.615C846.84 456.815 851.907 452.282 854.974 442.415L857.24 435.215L858.84 441.082C859.64 444.282 861.374 448.549 862.707 450.682ZM136.04 448.282C136.04 449.615 134.973 450.949 133.773 451.215C131.373 451.615 130.307 447.615 132.307 445.615C133.907 444.149 136.04 445.615 136.04 448.282ZM36.4402 451.749C41.1068 456.415 34.5735 465.349 28.8402 462.282C22.8402 458.949 24.4402 450.149 31.1068 450.149C33.2402 450.149 35.5068 450.815 36.4402 451.749ZM108.173 475.749C109.373 477.082 113.24 478.949 116.573 480.015C121.107 481.349 121.773 481.882 119.373 482.015C115.24 482.149 108.04 486.549 106.307 489.749C105.507 491.082 104.44 494.549 103.907 497.482L102.84 502.815L101.773 496.949C101.24 493.749 99.7735 489.882 98.4402 488.415C95.5068 485.215 88.7068 482.149 83.7735 482.015C80.5735 481.882 80.7068 481.749 85.1068 480.682C93.1068 478.815 97.5068 475.882 99.9068 470.949C101.107 468.415 102.04 465.615 102.173 464.549C102.173 463.615 103.107 465.215 104.173 468.015C105.24 470.949 107.107 474.415 108.173 475.749ZM921.774 497.749C922.574 503.215 915.24 505.349 912.174 500.549C911.107 498.815 911.374 497.615 913.24 495.615C916.174 492.415 921.107 493.615 921.774 497.749ZM834.04 501.615C834.04 501.882 831.907 502.149 829.374 502.149C826.84 502.149 824.707 501.615 824.707 501.082C824.707 500.549 826.84 500.282 829.374 500.549C831.907 500.815 834.04 501.349 834.04 501.615ZM73.7735 524.015C76.3068 530.282 79.7735 532.549 90.4402 535.482L98.5735 537.749L92.0402 539.349C78.8402 542.682 73.6402 547.749 71.9068 559.349C70.9735 565.749 69.6402 564.815 68.1735 556.549C66.5735 547.349 59.6402 542.015 45.3735 538.815C41.6402 537.882 42.0402 537.615 50.0402 535.482C60.7068 532.415 66.8402 526.549 68.1735 517.882C69.1068 512.549 69.2402 512.415 70.4402 515.482C71.1068 517.349 72.5735 521.082 73.7735 524.015ZM895.907 518.415C897.774 521.482 895.507 525.349 891.64 525.882C889.507 526.149 888.574 525.482 887.907 522.949C887.507 521.082 887.507 518.549 887.907 517.349C888.974 514.682 893.907 515.349 895.907 518.415ZM139.107 528.549C139.373 530.415 138.84 531.482 137.507 531.482C134.973 531.482 133.64 529.215 134.573 526.682C135.64 523.749 138.573 525.082 139.107 528.549ZM838.44 531.615C864.174 536.815 907.774 548.682 909.907 550.949C912.174 553.349 873.774 544.682 844.174 536.149C815.907 528.149 814.04 526.549 838.44 531.615ZM827.107 559.749C826.84 561.482 825.774 562.815 824.707 562.815C823.64 562.815 822.574 561.482 822.307 559.749C821.907 557.482 822.574 556.815 824.707 556.815C826.84 556.815 827.507 557.482 827.107 559.749ZM146.707 573.749C131.24 581.882 68.8402 604.949 63.1068 604.815C60.0402 604.682 74.4402 597.882 92.0402 591.082C111.64 583.615 150.04 570.282 152.04 570.282C152.84 570.282 150.44 571.882 146.707 573.749ZM901.774 579.082C902.307 582.415 898.84 584.015 896.707 581.349C895.374 579.882 895.374 579.082 896.707 577.482C898.974 574.815 901.24 575.615 901.774 579.082ZM56.7068 584.015C56.7068 587.215 53.6402 589.482 51.2402 588.015C50.5735 587.615 50.0402 585.882 50.0402 584.015C50.0402 581.482 50.7068 580.815 53.3735 580.815C56.0402 580.815 56.7068 581.482 56.7068 584.015ZM807.107 588.015C807.64 590.815 805.24 592.949 802.44 591.882C800.574 591.215 800.04 587.215 801.64 585.615C803.24 584.015 806.707 585.482 807.107 588.015ZM840.707 600.549C840.707 601.482 841.907 604.815 843.507 608.149C846.707 614.949 851.907 618.682 862.174 621.349C869.107 623.082 869.24 623.215 865.374 624.149C856.974 626.149 852.707 627.749 849.24 630.415C845.107 633.749 840.84 642.549 840.707 647.749C840.707 649.749 840.174 651.749 839.374 652.149C838.574 652.549 838.04 651.615 838.04 649.882C838.04 638.549 830.707 629.082 819.774 626.282C816.307 625.349 812.44 624.282 811.374 623.882C810.307 623.615 813.374 622.015 818.307 620.282C823.24 618.682 828.574 616.149 830.174 614.682C833.774 611.615 837.907 602.682 838.04 598.149C838.04 595.482 838.307 595.215 839.374 596.815C840.04 597.882 840.707 599.615 840.707 600.549ZM161.507 598.815C158.307 601.215 138.707 611.482 137.24 611.482C135.24 611.482 142.573 606.949 152.707 601.882C163.507 596.549 165.507 595.749 161.507 598.815ZM776.307 618.949C777.24 621.482 773.64 625.482 771.507 624.282C770.707 623.749 770.04 621.882 770.04 620.015C770.04 617.749 770.707 616.815 772.707 616.815C774.174 616.815 775.774 617.749 776.307 618.949ZM172.707 626.149C162.707 633.749 94.7068 671.215 93.2402 669.749C92.4402 669.082 104.573 661.082 120.307 652.015C133.907 644.015 173.64 623.482 175.107 623.482C175.64 623.482 174.573 624.682 172.707 626.149ZM891.374 634.815C891.374 637.215 890.707 638.149 888.707 638.149C886.707 638.149 886.04 637.215 886.04 634.815C886.04 632.415 886.707 631.482 888.707 631.482C890.707 631.482 891.374 632.415 891.374 634.815ZM82.8402 644.149C86.9735 650.549 80.8402 657.615 74.5735 653.482C71.1068 651.215 70.1735 645.215 72.9735 642.415C75.6402 639.749 80.4402 640.549 82.8402 644.149ZM194.04 648.149C191.107 651.615 158.307 677.615 147.507 684.949C133.64 694.549 139.507 688.149 159.373 672.282C172.307 661.882 193.507 646.415 195.24 646.282C195.507 646.149 194.973 647.082 194.04 648.149ZM768.974 663.615C774.307 668.815 776.84 671.749 774.44 670.282C772.174 668.682 765.907 663.215 760.44 658.015C755.107 652.815 752.574 649.882 754.974 651.349C757.24 652.949 763.507 658.415 768.974 663.615ZM876.574 660.015C878.574 662.415 876.974 666.149 874.04 666.149C872.707 666.149 871.24 665.215 870.84 664.015C870.04 661.882 872.04 658.149 874.04 658.149C874.574 658.149 875.774 658.949 876.574 660.015ZM236.04 687.349C239.907 693.082 249.374 698.815 257.374 700.149C266.707 701.882 266.707 702.949 257.24 705.349C240.174 709.482 233.24 717.482 229.773 737.082L228.307 745.482L226.44 736.282C222.974 719.349 215.907 710.415 202.973 706.949C199.24 706.015 193.907 704.549 191.373 703.882L186.707 702.682L194.04 700.815C213.64 696.149 221.64 689.349 225.507 674.282L227.907 664.815L230.307 673.482C231.64 678.282 234.307 684.549 236.04 687.349ZM824.707 682.949C863.774 709.215 861.64 707.349 858.44 711.349L856.04 714.282L844.707 704.549C838.44 699.215 826.574 689.215 818.44 682.282C810.174 675.349 803.374 669.482 803.374 669.215C803.374 668.682 809.24 672.549 824.707 682.949ZM726.974 689.082C733.374 695.082 729.64 704.815 720.974 704.815C714.84 704.815 711.374 701.615 711.374 695.882C711.374 687.215 720.574 683.082 726.974 689.082ZM677.107 709.482L679.907 713.482L676.44 710.415C674.574 708.682 671.107 704.549 668.84 701.082L664.44 694.815L669.374 700.149C672.04 703.082 675.507 707.215 677.107 709.482ZM772.04 710.149C775.907 726.682 782.707 737.482 792.974 742.949C794.84 743.882 801.374 746.149 807.374 747.882L818.307 751.082L808.44 753.482C791.374 757.615 782.974 763.215 777.374 774.149C774.307 780.282 770.04 795.482 770.04 800.549C770.04 802.015 769.507 803.615 768.974 804.015C768.44 804.415 767.24 799.882 766.307 794.149C764.307 780.282 760.44 771.482 753.374 764.949C746.707 758.815 740.974 756.149 728.174 753.215L718.974 751.082L729.907 747.882C749.107 742.415 756.04 737.482 761.374 725.749C763.107 722.015 765.24 714.949 766.04 710.149C767.774 700.415 768.84 696.815 769.374 698.815C769.64 699.482 770.84 704.682 772.04 710.149ZM298.707 715.082C290.707 729.615 271.907 758.149 270.44 758.149C266.44 758.149 268.174 754.415 279.774 738.549C286.574 729.215 294.04 718.682 296.44 715.082C298.84 711.615 301.107 708.815 301.507 708.815C301.907 708.815 300.707 711.615 298.707 715.082ZM377.24 712.282C380.04 715.082 379.907 718.549 376.84 721.349C374.84 723.215 373.64 723.349 371.507 722.149C367.507 720.015 367.24 714.682 371.107 711.749C373.907 709.615 374.707 709.749 377.24 712.282ZM334.707 718.815C334.707 723.482 331.107 726.149 327.774 724.015C324.44 722.015 324.04 718.415 326.707 715.482C329.907 711.882 334.707 713.882 334.707 718.815ZM428.707 722.815C430.307 724.549 433.24 726.282 435.107 726.815L438.707 727.749L434.707 729.349C428.974 731.882 426.174 735.615 424.84 742.282L423.907 748.149L422.84 742.815C421.64 735.615 418.307 731.749 412.04 729.482C407.64 728.015 407.107 727.615 409.374 726.815C415.907 724.815 418.84 722.415 421.24 717.482L423.907 712.282L424.84 716.015C425.507 718.149 427.24 721.215 428.707 722.815ZM628.707 716.149C632.174 720.415 626.974 726.949 622.44 724.015C619.24 722.015 618.84 718.949 621.374 716.282C624.04 713.615 626.574 713.615 628.707 716.149ZM597.507 732.949C599.774 735.215 603.774 737.615 607.24 738.415L613.107 739.882L607.907 741.482C605.107 742.282 601.374 743.749 599.774 744.682C595.907 746.682 592.04 754.282 590.707 762.149L589.64 768.149L588.174 760.815C587.374 756.682 585.374 751.482 583.64 749.215C580.707 745.082 572.574 740.949 566.974 740.682C565.374 740.682 567.24 739.615 571.374 738.149C580.707 734.949 586.974 728.415 588.174 720.549L589.107 714.949L591.374 722.015C592.707 725.882 595.374 730.815 597.507 732.949ZM129.64 726.949C131.64 730.149 131.64 730.815 129.907 734.015C127.24 738.682 121.64 739.349 118.84 735.215C116.173 731.349 116.173 728.949 118.973 725.882C122.173 722.415 126.84 722.815 129.64 726.949ZM547.907 752.815C550.174 769.215 551.907 788.415 550.84 787.349C549.507 786.015 544.707 753.349 544.04 740.815C543.374 726.149 544.574 730.149 547.907 752.815ZM166.307 741.749C171.373 746.282 167.773 755.482 160.973 755.482C153.773 755.482 150.173 747.215 154.973 741.882C157.64 738.949 163.107 738.815 166.307 741.749ZM664.707 742.149C667.907 745.349 668.04 747.215 665.24 751.215C662.974 754.415 656.974 755.215 654.307 752.549C651.507 749.749 652.307 742.682 655.774 741.082C660.04 738.949 661.774 739.215 664.707 742.149ZM397.774 751.215C398.174 753.349 397.507 754.149 395.507 754.149C392.307 754.149 390.84 752.149 391.907 749.349C393.107 746.282 397.24 747.615 397.774 751.215ZM363.907 760.015C364.974 765.882 370.307 771.082 377.24 773.082L382.707 774.549L377.64 775.882C370.84 777.482 365.107 783.615 363.64 790.549C362.44 796.149 361.774 795.749 360.04 788.282C358.974 783.215 352.307 777.082 346.574 776.015C341.374 775.082 341.64 773.482 347.107 772.415C352.974 771.215 359.107 765.349 360.174 760.015C361.24 754.282 362.84 754.149 363.907 760.015ZM314.84 767.082C313.774 769.215 311.907 772.015 310.707 773.482C308.84 775.882 308.84 775.615 310.84 771.482C313.107 766.682 315.24 763.482 316.174 763.482C316.574 763.482 315.907 765.082 314.84 767.082ZM645.507 786.282C647.374 788.282 652.44 790.949 656.574 792.282L664.174 794.682L656.174 797.482C645.907 800.949 641.24 806.415 638.84 818.282L637.107 826.815L636.174 820.149C634.04 806.415 628.307 799.749 615.374 796.415L608.04 794.549L612.707 793.482C625.107 790.815 633.64 783.482 636.174 773.615C637.107 769.749 637.107 769.882 639.507 776.149C640.84 779.749 643.507 784.282 645.507 786.282ZM444.04 774.282C445.107 777.749 441.907 781.482 438.84 780.415C436.707 779.615 435.907 774.015 437.64 772.415C439.507 770.549 443.24 771.615 444.04 774.282ZM699.374 795.482L702.04 800.149L698.44 795.882C696.307 793.615 693.64 789.749 692.307 787.215L689.907 782.815L693.374 786.815C695.24 788.949 697.907 792.949 699.374 795.482ZM409.774 799.082C410.04 802.415 409.64 803.482 407.374 804.149C402.174 805.749 398.44 799.615 402.307 795.749C405.374 792.682 409.374 794.415 409.774 799.082ZM536.307 808.282C536.574 809.215 535.774 810.815 534.574 812.149C532.707 814.015 532.04 814.015 530.44 812.415C527.907 809.882 529.64 805.882 533.107 806.415C534.574 806.682 536.04 807.482 536.307 808.282ZM586.574 843.749C592.84 862.549 598.04 878.549 598.04 879.215C598.04 880.282 591.24 882.415 590.44 881.615C590.307 881.482 586.84 866.682 582.84 848.682C578.84 830.682 575.107 814.149 574.574 812.015C572.174 801.882 576.174 812.549 586.574 843.749ZM722.574 818.282C727.774 822.415 727.107 828.149 721.107 831.349C717.507 833.215 713.64 831.615 711.374 827.482C709.507 824.015 709.64 822.949 712.84 818.949C716.174 814.815 717.907 814.682 722.574 818.282ZM248.707 828.016C249.507 829.082 250.04 831.349 249.773 833.082C249.507 835.482 248.574 836.149 245.374 836.149C242.174 836.149 241.24 835.482 240.973 832.949C240.573 830.949 241.373 828.949 242.84 827.882C245.907 825.615 246.707 825.749 248.707 828.016ZM675.907 851.749C680.44 858.282 676.974 866.149 669.64 866.149C664.44 866.149 660.707 862.682 660.707 857.882C660.707 849.882 671.507 845.482 675.907 851.749ZM532.44 861.615C532.974 864.949 529.774 867.882 526.84 866.682C524.707 865.882 523.907 860.682 525.64 858.949C527.507 857.082 532.04 858.815 532.44 861.615ZM294.574 870.949C295.64 873.749 294.44 875.482 291.24 875.482C289.64 875.482 288.707 874.549 288.707 873.082C288.707 868.549 293.107 867.082 294.574 870.949ZM495.107 902.815C497.374 906.815 497.374 906.815 493.107 911.215C490.174 914.149 488.707 915.082 488.707 913.749C488.707 912.549 487.24 910.549 485.374 909.082C482.574 906.815 482.307 906.149 484.04 904.815C486.04 903.215 487.907 898.015 489.507 889.482L490.44 884.149L491.64 891.482C492.307 895.482 493.774 900.549 495.107 902.815ZM335.107 891.215C335.507 893.349 334.84 894.149 332.974 894.149C329.374 894.149 328.574 892.815 330.174 889.882C331.907 886.682 334.574 887.349 335.107 891.215ZM427.374 900.282C428.84 901.882 428.84 902.682 427.107 904.415C424.574 906.815 422.04 905.749 422.04 902.282C422.04 897.882 424.707 896.949 427.374 900.282ZM393.24 902.949C394.174 905.482 391.907 908.815 389.107 908.815C386.84 908.815 385.507 905.615 386.574 902.815C387.507 900.149 392.174 900.282 393.24 902.949ZM542.707 905.482C542.707 909.082 542.307 909.482 538.707 909.482C535.907 909.482 534.574 908.815 534.307 907.082C533.507 902.682 535.107 900.549 538.974 901.082C542.174 901.482 542.707 902.149 542.707 905.482Z" fill="black"/>
</svg>
